<svg width="85" height="85" viewBox="0 0 85 85" fill="none" xmlns="http://www.w3.org/2000/svg">
<rect width="85" height="85" rx="7" fill="white"/>
<path d="M69.8916 55.72C65.0116 64.92 55.5716 71.16 44.2916 71.16C28.2916 71.16 15.3316 58.2 15.3316 42.2C15.3316 26.36 28.2916 13.24 44.2916 13.24C55.2516 13.24 64.5316 19.32 69.4116 28.04C64.5316 30.6 64.1316 30.84 58.6916 33.48C55.8916 28.6 50.4516 25.24 44.2916 25.24C34.9316 25.24 27.3316 32.92 27.3316 42.2C27.3316 51.56 34.9316 59.16 44.2916 59.16C50.6916 59.16 56.2916 55.72 59.1716 50.28C64.6116 53.08 64.7716 53.4 69.8916 55.72Z" fill="black"/>
<circle cx="44.5" cy="42.5" r="5.5" fill="black"/>
</svg>
