<?xml version="1.0" encoding="utf-8"?>
<svg width="85px" height="85px" viewBox="0 0 85 85" version="1.1" xmlns:xlink="http://www.w3.org/1999/xlink" xmlns="http://www.w3.org/2000/svg">
  <defs>
    <path d="M0 0L85 0L85 85L0 85L0 0Z" id="path_1" />
    <clipPath id="clip_1">
      <use xlink:href="#path_1" />
    </clipPath>
  </defs>
  <g id="Logo" clip-path="url(#clip_1)">
    <path d="M0 0L85 0L85 85L0 85L0 0Z" id="Logo" fill="none" fill-rule="evenodd" stroke="none" />
    <path d="M0 14L0 7C0 5.067 0.683417 3.41709 2.05025 2.05025C3.41709 0.683417 5.067 0 7 0L78 0C79.933 0 81.5829 0.683417 82.9497 2.05025C84.3166 3.41709 85 5.067 85 7L85 78C85 79.933 84.3166 81.5829 82.9497 82.9497C81.5829 84.3166 79.933 85 78 85L7 85C5.067 85 3.41709 84.3166 2.05025 82.9497C0.683417 81.5829 0 79.933 0 78L0 14Z" id="Rectangle" fill="#000000" fill-rule="evenodd" stroke="none" />
    <path d="M69.8916 55.72C65.0116 64.92 55.5716 71.16 44.2916 71.16C28.2916 71.16 15.3316 58.2 15.3316 42.2C15.3316 26.36 28.2916 13.24 44.2916 13.24C55.2516 13.24 64.5316 19.32 69.4116 28.04C64.5316 30.6 64.1316 30.84 58.6916 33.48C55.8916 28.6 50.4516 25.24 44.2916 25.24C34.9316 25.24 27.3316 32.92 27.3316 42.2C27.3316 51.56 34.9316 59.16 44.2916 59.16C50.6916 59.16 56.2916 55.72 59.1716 50.28C64.6116 53.08 64.7716 53.4 69.8916 55.72L69.8916 55.72Z" id="Shape" fill="#FFFFFF" stroke="none" />
    <path d="M39 42.5C39 39.4624 41.4624 37 44.5 37C47.5376 37 50 39.4624 50 42.5C50 45.5376 47.5376 48 44.5 48C41.4624 48 39 45.5376 39 42.5Z" id="Circle" fill="#FFFFFF" fill-rule="evenodd" stroke="none" />
  </g>
</svg>